<svg width="96" height="96" viewBox="0 0 96 96" fill="none" xmlns="http://www.w3.org/2000/svg">
<circle cx="48" cy="48" r="48" fill="#EBF3F9"/>
<path d="M54.0957 48.9043C50.9981 45.5773 48.0535 42.1356 45.5678 38.3114C43.8087 35.558 42.2408 32.4605 40.367 30.5484C38.6843 28.7893 37.6136 26.9154 37.0782 25.0033C33.3305 26.0741 30.7301 26.9919 27.3648 30.5101C3.92272 54.6788 37.8813 92.0026 63.962 67.4515C65.8741 65.6542 65.1858 63.4744 66.333 61.5241C62.7 57.3175 57.9198 52.9962 54.0957 48.9043Z" fill="#06AEEF"/>
<path d="M63.9631 67.4516C39.7944 87.0695 6.14179 55.9026 27.3659 30.472C27.7101 30.0896 28.0925 29.6689 28.4749 29.2865C33.3316 24.468 38.7236 22.2118 44.001 21.8676C44.5364 21.8294 44.957 22.25 44.9953 22.7472C45.0717 25.883 47.0985 27.9863 50.0814 28.4069C50.5403 28.4834 50.808 28.9041 50.6933 29.363C50.3873 30.3572 50.2726 31.428 50.2726 32.537C50.3873 38.1585 55.0528 42.7858 60.6743 42.824C61.8216 42.824 62.9306 42.671 64.0013 42.3269C64.422 42.1739 64.8809 42.4416 64.9574 42.9005C65.6457 46.6482 69.0492 45.9598 70.6554 45.4244C71.1143 45.2715 71.6114 45.5392 71.7261 45.9981C74.8619 57.4323 63.9631 67.4516 63.9631 67.4516Z" fill="url(#paint0_linear_460_5270)"/>
<path d="M47.5558 43.2829C47.5558 46.1128 45.2613 48.0248 42.4314 48.0248C39.6016 48.0248 37.3071 46.1128 37.3071 43.2829C37.3071 40.453 39.6016 38.1585 42.4314 38.1585C45.2613 38.1585 47.5558 40.4148 47.5558 43.2829Z" fill="white"/>
<path d="M63.6557 55.635C63.6557 57.8147 61.8966 59.5739 59.7168 59.5739C57.5371 59.5739 56.0457 58.2736 56.0457 56.0939C56.0457 53.9141 57.5371 51.6578 59.7168 51.6578C61.8966 51.6578 63.6557 53.4552 63.6557 55.635Z" fill="white"/>
<path d="M34.2109 50.8166C34.2109 52.4992 32.9871 53.4552 31.3045 53.4552C29.6219 53.4552 28.1687 52.4992 28.1687 50.8166C28.1687 49.1339 29.5072 47.7955 31.1898 47.7955C32.8724 47.7955 34.2109 49.1339 34.2109 50.8166Z" fill="white"/>
<path d="M43.4634 61.065C43.4634 61.8299 42.8515 62.4417 42.0867 62.4417C41.3218 62.4417 40.71 61.8299 40.71 61.065C40.71 60.3002 41.3218 59.6883 42.0867 59.6883C42.8515 59.6883 43.4634 60.3002 43.4634 61.065Z" fill="white"/>
<path d="M34.1327 34.6401C34.9775 34.6401 35.6624 33.9553 35.6624 33.1104C35.6624 32.2656 34.9775 31.5808 34.1327 31.5808C33.2879 31.5808 32.603 32.2656 32.603 33.1104C32.603 33.9553 33.2879 34.6401 34.1327 34.6401Z" fill="white"/>
<path d="M61.7812 23.9326C61.9342 25.7682 60.328 27.2597 58.1865 27.2597C56.045 27.2597 54.4006 25.6153 54.5153 23.5885C54.63 21.5617 56.2362 20.0702 58.11 20.2614C59.9838 20.4527 61.6282 22.0588 61.7812 23.9326Z" fill="url(#paint1_linear_460_5270)"/>
<path d="M59.0288 26.5329C59.8701 26.5329 60.6349 26.3034 61.2468 25.8828C60.5967 26.7241 59.5259 27.2595 58.2257 27.2595C56.0842 27.2595 54.4398 25.6151 54.5545 23.6265C54.631 22.4028 55.2428 21.3703 56.1224 20.7966C55.7017 21.3703 55.3958 22.0969 55.3576 22.8999C55.2811 24.8503 56.9255 26.4946 59.0288 26.5329Z" fill="#06AEEF"/>
<path d="M61.5902 34.3341C61.5137 35.5578 60.4812 36.5903 59.2957 36.705C58.1102 36.7815 57.1542 35.7873 57.1924 34.487C57.1924 33.1868 58.2249 32.1161 59.4869 32.1161C60.7489 32.1161 61.6667 33.1103 61.5902 34.3341Z" fill="url(#paint2_linear_460_5270)"/>
<path d="M59.7529 36.1697C60.2118 36.1315 60.6707 35.9403 61.0531 35.6726C60.6324 36.2462 59.9823 36.6286 59.2558 36.7051C58.0703 36.7816 57.1525 35.7873 57.1525 34.4871C57.1525 33.7222 57.5349 32.9957 58.1085 32.575C57.8408 32.9574 57.6496 33.4546 57.6496 33.9517C57.6114 35.2519 58.5674 36.2462 59.7529 36.1697Z" fill="#06AEEF"/>
<path d="M77.2308 35.2903C77.1161 36.7435 75.9306 37.9672 74.5157 38.0437C73.139 38.1202 72.03 36.973 72.03 35.4433C72.0682 33.9136 73.2537 32.6899 74.7451 32.6899C76.2365 32.6899 77.3455 33.8754 77.2308 35.2903Z" fill="url(#paint3_linear_460_5270)"/>
<path d="M75.0889 37.4702C75.6625 37.432 76.1979 37.2025 76.6185 36.8583C76.1214 37.5467 75.3566 38.0056 74.5152 38.0438C73.1385 38.1203 72.0295 36.9731 72.0295 35.4434C72.0295 34.5256 72.4884 33.7225 73.1385 33.1871C72.7944 33.646 72.6032 34.2197 72.6032 34.8315C72.6032 36.3994 73.7122 37.5467 75.0889 37.4702Z" fill="#06AEEF"/>
<defs>
<linearGradient id="paint0_linear_460_5270" x1="20.6401" y1="47.7462" x2="72.2929" y2="47.7462" gradientUnits="userSpaceOnUse">
<stop stop-color="#06AEEF"/>
<stop offset="1" stop-color="#A4ECE2"/>
</linearGradient>
<linearGradient id="paint1_linear_460_5270" x1="54.5096" y1="23.7523" x2="61.7913" y2="23.7523" gradientUnits="userSpaceOnUse">
<stop stop-color="#06AEEF"/>
<stop offset="1" stop-color="#A4ECE2"/>
</linearGradient>
<linearGradient id="paint2_linear_460_5270" x1="57.1913" y1="34.4126" x2="61.5946" y2="34.4126" gradientUnits="userSpaceOnUse">
<stop stop-color="#06AEEF"/>
<stop offset="1" stop-color="#A4ECE2"/>
</linearGradient>
<linearGradient id="paint3_linear_460_5270" x1="72.03" y1="35.3686" x2="77.239" y2="35.3686" gradientUnits="userSpaceOnUse">
<stop stop-color="#06AEEF"/>
<stop offset="1" stop-color="#A4ECE2"/>
</linearGradient>
</defs>
</svg>
